<?xml version="1.0" encoding="utf-8"?>
<!-- Generator: Adobe Illustrator 19.1.1, SVG Export Plug-In . SVG Version: 6.00 Build 0)  -->
<svg version="1.1" id="Layer_1" xmlns="http://www.w3.org/2000/svg" xmlns:xlink="http://www.w3.org/1999/xlink" x="0px" y="0px"
	 viewBox="178.5 92.5 895 565" style="enable-background:new 178.5 92.5 895 565;" xml:space="preserve">
<style type="text/css">
	.st0{fill:#FFFFFF;stroke:#000000;}
	.st1{fill:none;stroke:#000000;}
	.st2{font-family:'SourceSansPro-Regular';}
	.st3{font-size:12px;}
	.st4{fill:#B3DDF2;stroke:#000000;stroke-width:0.25;stroke-miterlimit:10;}
	.st5{fill:#B3DDF2;}
	.st6{fill:#FF0000;stroke:#000000;stroke-width:0.25;stroke-miterlimit:10;}
	.st7{fill:#FF0000;}
	.st8{font-family:'SourceSansPro-Bold';}
	.st9{font-size:24px;}
	.st10{fill:#B3DDF2;stroke:#000000;stroke-width:0.5;stroke-miterlimit:10;}
	.st11{fill:#FF0000;stroke:#000000;stroke-width:0.5;stroke-miterlimit:10;}
	.st12{font-size:16px;}
	.st13{font-family:'SourceSansPro-Semibold';}
</style>
<rect x="179" y="93" class="st0" width="894" height="588"/>
<g transform="translate(25,50)">
	<g transform="translate(0,425)">
		<g transform="translate(0,0)">
			<line class="st1" x1="174" y1="147" x2="174" y2="153"/>
			<text transform="matrix(1 0 0 1 160.6523 164.52)" class="st2 st3">2015</text>
		</g>
		<g transform="translate(71.41772151898735,0)">
			<line class="st1" x1="174" y1="147" x2="174" y2="153"/>
			<text transform="matrix(1 0 0 1 149.9912 164.52)" class="st2 st3">February</text>
		</g>
		<g transform="translate(135.9240506329114,0)">
			<line class="st1" x1="174" y1="147" x2="174" y2="153"/>
			<text transform="matrix(1 0 0 1 157.3301 164.52)" class="st2 st3">March</text>
		</g>
		<g transform="translate(207.24578059071732,0)">
			<line class="st1" x1="174" y1="147" x2="174" y2="153"/>
			<text transform="matrix(1 0 0 1 161.9971 164.52)" class="st2 st3">April</text>
		</g>
		<g transform="translate(276.3597046413502,0)">
			<line class="st1" x1="174" y1="147" x2="174" y2="153"/>
			<text transform="matrix(1 0 0 1 162.665 164.52)" class="st2 st3">May</text>
		</g>
		<g transform="translate(347.77742616033754,0)">
			<line class="st1" x1="174" y1="147" x2="174" y2="153"/>
			<text transform="matrix(1 0 0 1 160.9893 164.52)" class="st2 st3">June</text>
		</g>
		<g transform="translate(416.8913502109705,0)">
			<line class="st1" x1="174" y1="147" x2="174" y2="153"/>
			<text transform="matrix(1 0 0 1 163.3301 164.52)" class="st2 st3">July</text>
		</g>
		<g transform="translate(488.30907172995785,0)">
			<line class="st1" x1="174" y1="147" x2="174" y2="153"/>
			<text transform="matrix(1 0 0 1 155.3203 164.52)" class="st2 st3">August</text>
		</g>
		<g transform="translate(559.7267932489451,0)">
			<line class="st1" x1="174" y1="147" x2="174" y2="153"/>
			<text transform="matrix(1 0 0 1 144.6504 164.52)" class="st2 st3">September</text>
		</g>
		<g transform="translate(628.840717299578,0)">
			<line class="st1" x1="174" y1="147" x2="174" y2="153"/>
			<text transform="matrix(1 0 0 1 152.6572 164.52)" class="st2 st3">October</text>
		</g>
		<g transform="translate(700.2584388185653,0)">
			<line class="st1" x1="174" y1="147" x2="174" y2="153"/>
			<text transform="matrix(1 0 0 1 146.3232 164.52)" class="st2 st3">November</text>
		</g>
		<g transform="translate(769.4683544303797,0)">
			<line class="st1" x1="174" y1="147" x2="174" y2="153"/>
			<text transform="matrix(1 0 0 1 146.3232 164.52)" class="st2 st3">December</text>
		</g>
		<g transform="translate(840.8860759493671,0)">
			<line class="st1" x1="174" y1="147" x2="174" y2="153"/>
			<text transform="matrix(1 0 0 1 160.6523 164.52)" class="st2 st3">2016</text>
		</g>
		<path class="st1" d="M174,153v-6h840.9"/>
	</g>
	<g>
		<circle class="st4" cx="173.1" cy="155" r="3.5"/>
	</g>
	<g>
		<circle class="st4" cx="179.2" cy="469" r="3.5"/>
	</g>
	<g>
		<circle class="st4" cx="185.3" cy="328" r="3.5"/>
	</g>
	<g>
		<circle class="st4" cx="185.6" cy="279" r="3.5"/>
	</g>
	<g>
		<circle class="st4" cx="187" cy="326" r="3.5"/>
	</g>
	<g>
		<circle class="st4" cx="187.2" cy="278" r="3.5"/>
	</g>
	<g>
		<circle class="st4" cx="192.2" cy="489" r="3.5"/>
	</g>
	<g>
		<circle class="st4" cx="194" cy="556" r="3.5"/>
	</g>
	<g>
		<circle class="st5" cx="194.8" cy="565" r="3.5"/>
	</g>
	<g>
		<circle class="st4" cx="203.3" cy="284" r="3.5"/>
	</g>
	<g>
		<circle class="st4" cx="203.8" cy="303" r="3.5"/>
	</g>
	<g>
		<circle class="st5" cx="205.6" cy="568" r="3.5"/>
	</g>
	<g>
		<circle class="st4" cx="210.4" cy="166" r="3.5"/>
	</g>
	<g>
		<circle class="st4" cx="212.2" cy="552" r="3.5"/>
	</g>
	<g>
		<circle class="st4" cx="212.7" cy="472" r="3.5"/>
	</g>
	<g>
		<circle class="st4" cx="214.3" cy="247" r="3.5"/>
	</g>
	<g>
		<circle class="st4" cx="218.8" cy="272" r="3.5"/>
	</g>
	<g>
		<circle class="st4" cx="220.1" cy="280" r="3.5"/>
	</g>
	<g>
		<circle class="st4" cx="221" cy="395" r="3.5"/>
	</g>
	<g>
		<circle class="st4" cx="222" cy="322" r="3.5"/>
	</g>
	<g>
		<circle class="st4" cx="226.5" cy="544" r="3.5"/>
	</g>
	<g>
		<circle class="st4" cx="226.6" cy="393" r="3.5"/>
	</g>
	<g>
		<circle class="st4" cx="227.2" cy="323" r="3.5"/>
	</g>
	<g>
		<circle class="st4" cx="235" cy="295" r="3.5"/>
	</g>
	<g>
		<circle class="st4" cx="235.9" cy="402" r="3.5"/>
	</g>
	<g>
		<circle class="st4" cx="238.7" cy="543" r="3.5"/>
	</g>
	<g>
		<circle class="st4" cx="238.8" cy="375" r="3.5"/>
	</g>
	<g>
		<circle class="st4" cx="242.5" cy="319" r="3.5"/>
	</g>
	<g>
		<circle class="st4" cx="242.6" cy="279" r="3.5"/>
	</g>
	<g>
		<circle class="st4" cx="244.3" cy="301" r="3.5"/>
	</g>
	<g>
		<circle class="st4" cx="247.4" cy="249" r="3.5"/>
	</g>
	<g>
		<circle class="st4" cx="248.6" cy="511" r="3.5"/>
	</g>
	<g>
		<circle class="st4" cx="250" cy="497" r="3.5"/>
	</g>
	<g>
		<circle class="st4" cx="253.9" cy="555" r="3.5"/>
	</g>
	<g>
		<circle class="st4" cx="255.3" cy="433" r="3.5"/>
	</g>
	<g>
		<circle class="st4" cx="262.7" cy="292" r="3.5"/>
	</g>
	<g>
		<circle class="st4" cx="263.8" cy="305" r="3.5"/>
	</g>
	<g>
		<circle class="st4" cx="264.9" cy="387" r="3.5"/>
	</g>
	<g>
		<circle class="st4" cx="265.9" cy="357" r="3.5"/>
	</g>
	<g>
		<circle class="st4" cx="266" cy="235" r="3.5"/>
	</g>
	<g>
		<circle class="st4" cx="266.2" cy="229" r="3.5"/>
	</g>
	<g>
		<circle class="st4" cx="268.3" cy="505" r="3.5"/>
	</g>
	<g>
		<circle class="st4" cx="278.1" cy="186" r="3.5"/>
	</g>
	<g>
		<circle class="st4" cx="289.5" cy="231" r="3.5"/>
	</g>
	<g>
		<circle class="st4" cx="291" cy="318" r="3.5"/>
	</g>
	<g>
		<circle class="st4" cx="293.2" cy="553" r="3.5"/>
	</g>
	<g>
		<circle class="st4" cx="295.3" cy="544" r="3.5"/>
	</g>
	<g>
		<circle class="st4" cx="301.3" cy="519" r="3.5"/>
	</g>
	<g>
		<circle class="st4" cx="302.2" cy="424" r="3.5"/>
	</g>
	<g>
		<circle class="st4" cx="302.6" cy="395" r="3.5"/>
	</g>
	<g>
		<circle class="st4" cx="314.1" cy="267" r="3.5"/>
	</g>
	<g>
		<circle class="st4" cx="323.9" cy="338" r="3.5"/>
	</g>
	<g>
		<circle class="st4" cx="323.9" cy="445" r="3.5"/>
	</g>
	<g>
		<circle class="st4" cx="325.3" cy="219" r="3.5"/>
	</g>
	<g>
		<circle class="st4" cx="326.2" cy="540" r="3.5"/>
	</g>
	<g>
		<circle class="st4" cx="327.7" cy="236" r="3.5"/>
	</g>
	<g>
		<circle class="st4" cx="329.2" cy="248" r="3.5"/>
	</g>
	<g>
		<circle class="st4" cx="329.7" cy="440" r="3.5"/>
	</g>
	<g>
		<circle class="st4" cx="330.1" cy="493" r="3.5"/>
	</g>
	<g>
		<circle class="st4" cx="330.2" cy="228" r="3.5"/>
	</g>
	<g>
		<circle class="st4" cx="342.5" cy="532" r="3.5"/>
	</g>
	<g>
		<circle class="st4" cx="343.4" cy="502" r="3.5"/>
	</g>
	<g>
		<circle class="st4" cx="343.9" cy="220" r="3.5"/>
	</g>
	<g>
		<circle class="st4" cx="343.9" cy="172" r="3.5"/>
	</g>
	<g>
		<circle class="st4" cx="344.7" cy="225" r="3.5"/>
	</g>
	<g>
		<circle class="st4" cx="344.7" cy="465" r="3.5"/>
	</g>
	<g>
		<circle class="st4" cx="351.4" cy="553" r="3.5"/>
	</g>
	<g>
		<circle class="st4" cx="351.5" cy="482" r="3.5"/>
	</g>
	<g>
		<circle class="st4" cx="352.4" cy="382" r="3.5"/>
	</g>
	<g>
		<circle class="st4" cx="353.3" cy="187" r="3.5"/>
	</g>
	<g>
		<circle class="st4" cx="355.3" cy="254" r="3.5"/>
	</g>
	<g>
		<circle class="st4" cx="357.1" cy="157" r="3.5"/>
	</g>
	<g>
		<circle class="st4" cx="358.2" cy="389" r="3.5"/>
	</g>
	<g>
		<circle class="st4" cx="359.2" cy="540" r="3.5"/>
	</g>
	<g>
		<circle class="st4" cx="360.3" cy="465" r="3.5"/>
	</g>
	<g>
		<circle class="st4" cx="363.5" cy="308" r="3.5"/>
	</g>
	<g>
		<circle class="st4" cx="366.9" cy="538" r="3.5"/>
	</g>
	<g>
		<circle class="st4" cx="369.1" cy="291" r="3.5"/>
	</g>
	<g>
		<circle class="st4" cx="369.9" cy="317" r="3.5"/>
	</g>
	<g>
		<circle class="st4" cx="372.2" cy="201" r="3.5"/>
	</g>
	<g>
		<circle class="st4" cx="374.6" cy="476" r="3.5"/>
	</g>
	<g>
		<circle class="st4" cx="378.1" cy="184" r="3.5"/>
	</g>
	<g>
		<circle class="st4" cx="380" cy="444" r="3.5"/>
	</g>
	<g>
		<circle class="st4" cx="380.1" cy="538" r="3.5"/>
	</g>
	<g>
		<circle class="st4" cx="383.1" cy="234" r="3.5"/>
	</g>
	<g>
		<circle class="st4" cx="383.6" cy="446" r="3.5"/>
	</g>
	<g>
		<circle class="st4" cx="383.8" cy="228" r="3.5"/>
	</g>
	<g>
		<circle class="st4" cx="385.6" cy="481" r="3.5"/>
	</g>
	<g>
		<circle class="st4" cx="386.5" cy="524" r="3.5"/>
	</g>
	<g>
		<circle class="st4" cx="387" cy="466" r="3.5"/>
	</g>
	<g>
		<circle class="st4" cx="387.3" cy="549" r="3.5"/>
	</g>
	<g>
		<circle class="st4" cx="389.3" cy="227" r="3.5"/>
	</g>
	<g>
		<circle class="st4" cx="389.8" cy="392" r="3.5"/>
	</g>
	<g>
		<circle class="st4" cx="397.6" cy="356" r="3.5"/>
	</g>
	<g>
		<circle class="st4" cx="398.5" cy="385" r="3.5"/>
	</g>
	<g>
		<circle class="st4" cx="398.8" cy="281" r="3.5"/>
	</g>
	<g>
		<circle class="st4" cx="404.2" cy="304" r="3.5"/>
	</g>
	<g>
		<circle class="st4" cx="406.3" cy="152" r="3.5"/>
	</g>
	<g>
		<circle class="st4" cx="413.8" cy="415" r="3.5"/>
	</g>
	<g>
		<circle class="st4" cx="415.2" cy="526" r="3.5"/>
	</g>
	<g>
		<circle class="st4" cx="420.5" cy="271" r="3.5"/>
	</g>
	<g>
		<circle class="st4" cx="420.5" cy="372" r="3.5"/>
	</g>
	<g>
		<circle class="st4" cx="423.3" cy="482" r="3.5"/>
	</g>
	<g>
		<circle class="st4" cx="423.3" cy="326" r="3.5"/>
	</g>
	<g>
		<circle class="st4" cx="423.3" cy="239" r="3.5"/>
	</g>
	<g>
		<circle class="st4" cx="426.5" cy="162" r="3.5"/>
	</g>
	<g>
		<circle class="st4" cx="427.2" cy="439" r="3.5"/>
	</g>
	<g>
		<circle class="st4" cx="427.6" cy="517" r="3.5"/>
	</g>
	<g>
		<circle class="st4" cx="428.6" cy="283" r="3.5"/>
	</g>
	<g>
		<circle class="st4" cx="429.5" cy="543" r="3.5"/>
	</g>
	<g>
		<circle class="st4" cx="433.7" cy="535" r="3.5"/>
	</g>
	<g>
		<circle class="st4" cx="435.2" cy="431" r="3.5"/>
	</g>
	<g>
		<circle class="st4" cx="436.5" cy="390" r="3.5"/>
	</g>
	<g>
		<circle class="st4" cx="436.8" cy="515" r="3.5"/>
	</g>
	<g>
		<circle class="st4" cx="440.1" cy="448" r="3.5"/>
	</g>
	<g>
		<circle class="st4" cx="441" cy="305" r="3.5"/>
	</g>
	<g>
		<circle class="st4" cx="444.9" cy="395" r="3.5"/>
	</g>
	<g>
		<circle class="st4" cx="447" cy="223" r="3.5"/>
	</g>
	<g>
		<circle class="st4" cx="447.1" cy="492" r="3.5"/>
	</g>
	<g>
		<circle class="st4" cx="448.8" cy="452" r="3.5"/>
	</g>
	<g>
		<circle class="st4" cx="450.4" cy="164" r="3.5"/>
	</g>
	<g>
		<circle class="st4" cx="452" cy="148" r="3.5"/>
	</g>
	<g>
		<circle class="st4" cx="452" cy="516" r="3.5"/>
	</g>
	<g>
		<circle class="st4" cx="452.1" cy="473" r="3.5"/>
	</g>
	<g>
		<circle class="st4" cx="452.6" cy="472" r="3.5"/>
	</g>
	<g>
		<circle class="st4" cx="455.1" cy="450" r="3.5"/>
	</g>
	<g>
		<circle class="st4" cx="461.2" cy="307" r="3.5"/>
	</g>
	<g>
		<circle class="st4" cx="465.4" cy="304" r="3.5"/>
	</g>
	<g>
		<circle class="st4" cx="466.1" cy="240" r="3.5"/>
	</g>
	<g>
		<circle class="st4" cx="470.1" cy="280" r="3.5"/>
	</g>
	<g>
		<circle class="st4" cx="471.1" cy="330" r="3.5"/>
	</g>
	<g>
		<circle class="st4" cx="471.8" cy="427" r="3.5"/>
	</g>
	<g>
		<circle class="st4" cx="472.1" cy="165" r="3.5"/>
	</g>
	<g>
		<circle class="st4" cx="474" cy="534" r="3.5"/>
	</g>
	<g>
		<circle class="st4" cx="479.9" cy="458" r="3.5"/>
	</g>
	<g>
		<circle class="st4" cx="480.2" cy="554" r="3.5"/>
	</g>
	<g>
		<circle class="st4" cx="482.2" cy="473" r="3.5"/>
	</g>
	<g>
		<circle class="st4" cx="485" cy="536" r="3.5"/>
	</g>
	<g>
		<circle class="st4" cx="490.7" cy="152" r="3.5"/>
	</g>
	<g>
		<circle class="st4" cx="495.3" cy="270" r="3.5"/>
	</g>
	<g>
		<circle class="st4" cx="495.6" cy="556" r="3.5"/>
	</g>
	<g>
		<circle class="st4" cx="496.1" cy="426" r="3.5"/>
	</g>
	<g>
		<circle class="st4" cx="497.6" cy="475" r="3.5"/>
	</g>
	<g>
		<circle class="st4" cx="500.4" cy="427" r="3.5"/>
	</g>
	<g>
		<circle class="st4" cx="501.2" cy="559" r="3.5"/>
	</g>
	<g>
		<circle class="st4" cx="501.3" cy="270" r="3.5"/>
	</g>
	<g>
		<circle class="st4" cx="502.3" cy="345" r="3.5"/>
	</g>
	<g>
		<circle class="st4" cx="502.8" cy="409" r="3.5"/>
	</g>
	<g>
		<circle class="st4" cx="503.3" cy="231" r="3.5"/>
	</g>
	<g>
		<circle class="st4" cx="503.4" cy="375" r="3.5"/>
	</g>
	<g>
		<circle class="st4" cx="503.5" cy="318" r="3.5"/>
	</g>
	<g>
		<circle class="st4" cx="505" cy="520" r="3.5"/>
	</g>
	<g>
		<circle class="st4" cx="505" cy="179" r="3.5"/>
	</g>
	<g>
		<circle class="st4" cx="505.3" cy="475" r="3.5"/>
	</g>
	<g>
		<circle class="st5" cx="507" cy="566" r="3.5"/>
	</g>
	<g>
		<circle class="st4" cx="507.5" cy="515" r="3.5"/>
	</g>
	<g>
		<circle class="st4" cx="507.6" cy="207" r="3.5"/>
	</g>
	<g>
		<circle class="st4" cx="514" cy="511" r="3.5"/>
	</g>
	<g>
		<circle class="st4" cx="514" cy="482" r="3.5"/>
	</g>
	<g>
		<circle class="st4" cx="515.1" cy="205" r="3.5"/>
	</g>
	<g>
		<circle class="st4" cx="517.2" cy="337" r="3.5"/>
	</g>
	<g>
		<circle class="st4" cx="517.3" cy="502" r="3.5"/>
	</g>
	<g>
		<circle class="st4" cx="517.3" cy="250" r="3.5"/>
	</g>
	<g>
		<circle class="st4" cx="517.4" cy="547" r="3.5"/>
	</g>
	<g>
		<circle class="st4" cx="518.6" cy="459" r="3.5"/>
	</g>
	<g>
		<circle class="st4" cx="520.7" cy="174" r="3.5"/>
	</g>
	<g>
		<circle class="st4" cx="521.4" cy="495" r="3.5"/>
	</g>
	<g>
		<circle class="st4" cx="521.4" cy="154" r="3.5"/>
	</g>
	<g>
		<circle class="st4" cx="523.2" cy="493" r="3.5"/>
	</g>
	<g>
		<circle class="st4" cx="525.5" cy="511" r="3.5"/>
	</g>
	<g>
		<circle class="st4" cx="526.2" cy="454" r="3.5"/>
	</g>
	<g>
		<circle class="st4" cx="528" cy="551" r="3.5"/>
	</g>
	<g>
		<circle class="st4" cx="530.9" cy="421" r="3.5"/>
	</g>
	<g>
		<circle class="st4" cx="533" cy="160" r="3.5"/>
	</g>
	<g>
		<circle class="st4" cx="533.2" cy="336" r="3.5"/>
	</g>
	<g>
		<circle class="st4" cx="533.5" cy="456" r="3.5"/>
	</g>
	<g>
		<circle class="st4" cx="536" cy="203" r="3.5"/>
	</g>
	<g>
		<circle class="st4" cx="536" cy="324" r="3.5"/>
	</g>
	<g>
		<circle class="st4" cx="539.5" cy="163" r="3.5"/>
	</g>
	<g>
		<circle class="st4" cx="539.8" cy="348" r="3.5"/>
	</g>
	<g>
		<circle class="st4" cx="542.5" cy="208" r="3.5"/>
	</g>
	<g>
		<circle class="st4" cx="542.6" cy="267" r="3.5"/>
	</g>
	<g>
		<circle class="st4" cx="544.5" cy="325" r="3.5"/>
	</g>
	<g>
		<circle class="st4" cx="546.3" cy="178" r="3.5"/>
	</g>
	<g>
		<circle class="st4" cx="547.2" cy="488" r="3.5"/>
	</g>
	<g>
		<circle class="st5" cx="547.3" cy="565" r="3.5"/>
	</g>
	<g>
		<circle class="st4" cx="548.3" cy="208" r="3.5"/>
	</g>
	<g>
		<circle class="st4" cx="550" cy="470" r="3.5"/>
	</g>
	<g>
		<circle class="st4" cx="551" cy="317" r="3.5"/>
	</g>
	<g>
		<circle class="st4" cx="551.7" cy="260" r="3.5"/>
	</g>
	<g>
		<circle class="st4" cx="551.8" cy="398" r="3.5"/>
	</g>
	<g>
		<circle class="st4" cx="553.9" cy="309" r="3.5"/>
	</g>
	<g>
		<circle class="st4" cx="554.1" cy="271" r="3.5"/>
	</g>
	<g>
		<circle class="st4" cx="556.8" cy="550" r="3.5"/>
	</g>
	<g>
		<circle class="st4" cx="558.1" cy="294" r="3.5"/>
	</g>
	<g>
		<circle class="st4" cx="558.5" cy="180" r="3.5"/>
	</g>
	<g>
		<circle class="st4" cx="560.9" cy="236" r="3.5"/>
	</g>
	<g>
		<circle class="st4" cx="561" cy="498" r="3.5"/>
	</g>
	<g>
		<circle class="st4" cx="562.4" cy="278" r="3.5"/>
	</g>
	<g>
		<circle class="st4" cx="563.1" cy="386" r="3.5"/>
	</g>
	<g>
		<circle class="st5" cx="563.1" cy="570" r="3.5"/>
	</g>
	<g>
		<circle class="st4" cx="566.7" cy="203" r="3.5"/>
	</g>
	<g>
		<circle class="st4" cx="567.8" cy="374" r="3.5"/>
	</g>
	<g>
		<circle class="st4" cx="568.8" cy="542" r="3.5"/>
	</g>
	<g>
		<circle class="st4" cx="573.8" cy="177" r="3.5"/>
	</g>
	<g>
		<circle class="st4" cx="574.5" cy="377" r="3.5"/>
	</g>
	<g>
		<circle class="st4" cx="574.8" cy="252" r="3.5"/>
	</g>
	<g>
		<circle class="st4" cx="577.1" cy="434" r="3.5"/>
	</g>
	<g>
		<circle class="st4" cx="578.7" cy="226" r="3.5"/>
	</g>
	<g>
		<circle class="st4" cx="580" cy="280" r="3.5"/>
	</g>
	<g>
		<circle class="st4" cx="582.1" cy="536" r="3.5"/>
	</g>
	<g>
		<circle class="st4" cx="583.1" cy="342" r="3.5"/>
	</g>
	<g>
		<circle class="st4" cx="583.6" cy="458" r="3.5"/>
	</g>
	<g>
		<circle class="st4" cx="585.4" cy="467" r="3.5"/>
	</g>
	<g>
		<circle class="st4" cx="586.7" cy="464" r="3.5"/>
	</g>
	<g>
		<circle class="st4" cx="588.8" cy="477" r="3.5"/>
	</g>
	<g>
		<circle class="st4" cx="590.9" cy="220" r="3.5"/>
	</g>
	<g>
		<circle class="st4" cx="593" cy="491" r="3.5"/>
	</g>
	<g>
		<circle class="st4" cx="595.1" cy="506" r="3.5"/>
	</g>
	<g>
		<circle class="st4" cx="595.2" cy="322" r="3.5"/>
	</g>
	<g>
		<circle class="st4" cx="595.6" cy="170" r="3.5"/>
	</g>
	<g>
		<circle class="st4" cx="595.6" cy="217" r="3.5"/>
	</g>
	<g>
		<circle class="st4" cx="597.2" cy="307" r="3.5"/>
	</g>
	<g>
		<circle class="st4" cx="599.3" cy="549" r="3.5"/>
	</g>
	<g>
		<circle class="st4" cx="600.2" cy="153" r="3.5"/>
	</g>
	<g>
		<circle class="st4" cx="600.3" cy="259" r="3.5"/>
	</g>
	<g>
		<circle class="st4" cx="600.5" cy="251" r="3.5"/>
	</g>
	<g>
		<circle class="st4" cx="600.6" cy="356" r="3.5"/>
	</g>
	<g>
		<circle class="st4" cx="600.7" cy="441" r="3.5"/>
	</g>
	<g>
		<circle class="st4" cx="600.8" cy="440" r="3.5"/>
	</g>
	<g>
		<circle class="st4" cx="601.7" cy="164" r="3.5"/>
	</g>
	<g>
		<circle class="st4" cx="604.1" cy="456" r="3.5"/>
	</g>
	<g>
		<circle class="st4" cx="605.8" cy="434" r="3.5"/>
	</g>
	<g>
		<circle class="st4" cx="607.3" cy="380" r="3.5"/>
	</g>
	<g>
		<circle class="st4" cx="608.7" cy="360" r="3.5"/>
	</g>
	<g>
		<circle class="st4" cx="611.4" cy="401" r="3.5"/>
	</g>
	<g>
		<circle class="st4" cx="611.5" cy="324" r="3.5"/>
	</g>
	<g>
		<circle class="st4" cx="613.3" cy="339" r="3.5"/>
	</g>
	<g>
		<circle class="st4" cx="613.9" cy="320" r="3.5"/>
	</g>
	<g>
		<circle class="st4" cx="614.1" cy="153" r="3.5"/>
	</g>
	<g>
		<circle class="st4" cx="614.3" cy="383" r="3.5"/>
	</g>
	<g>
		<circle class="st4" cx="614.3" cy="334" r="3.5"/>
	</g>
	<g>
		<circle class="st4" cx="615.3" cy="479" r="3.5"/>
	</g>
	<g>
		<circle class="st5" cx="615.3" cy="571" r="3.5"/>
	</g>
	<g>
		<circle class="st4" cx="617.9" cy="173" r="3.5"/>
	</g>
	<g>
		<circle class="st4" cx="619" cy="426" r="3.5"/>
	</g>
	<g>
		<circle class="st4" cx="624.9" cy="462" r="3.5"/>
	</g>
	<g>
		<circle class="st4" cx="625.2" cy="448" r="3.5"/>
	</g>
	<g>
		<circle class="st4" cx="625.5" cy="358" r="3.5"/>
	</g>
	<g>
		<circle class="st4" cx="628.2" cy="378" r="3.5"/>
	</g>
	<g>
		<circle class="st4" cx="628.4" cy="299" r="3.5"/>
	</g>
	<g>
		<circle class="st4" cx="629.1" cy="533" r="3.5"/>
	</g>
	<g>
		<circle class="st4" cx="629.4" cy="427" r="3.5"/>
	</g>
	<g>
		<circle class="st4" cx="629.4" cy="267" r="3.5"/>
	</g>
	<g>
		<circle class="st4" cx="630.2" cy="313" r="3.5"/>
	</g>
	<g>
		<circle class="st4" cx="630.4" cy="343" r="3.5"/>
	</g>
	<g>
		<circle class="st4" cx="630.5" cy="171" r="3.5"/>
	</g>
	<g>
		<circle class="st4" cx="632.4" cy="536" r="3.5"/>
	</g>
	<g>
		<circle class="st4" cx="636.9" cy="528" r="3.5"/>
	</g>
	<g>
		<circle class="st4" cx="639" cy="359" r="3.5"/>
	</g>
	<g>
		<circle class="st4" cx="645.7" cy="487" r="3.5"/>
	</g>
	<g>
		<circle class="st4" cx="646.3" cy="375" r="3.5"/>
	</g>
	<g>
		<circle class="st4" cx="648.4" cy="348" r="3.5"/>
	</g>
	<g>
		<circle class="st4" cx="648.7" cy="236" r="3.5"/>
	</g>
	<g>
		<circle class="st4" cx="648.7" cy="220" r="3.5"/>
	</g>
	<g>
		<circle class="st4" cx="649.5" cy="245" r="3.5"/>
	</g>
	<g>
		<circle class="st4" cx="650.5" cy="187" r="3.5"/>
	</g>
	<g>
		<circle class="st4" cx="654.5" cy="377" r="3.5"/>
	</g>
	<g>
		<circle class="st4" cx="658.1" cy="302" r="3.5"/>
	</g>
	<g>
		<circle class="st4" cx="660" cy="181" r="3.5"/>
	</g>
	<g>
		<circle class="st4" cx="664.8" cy="222" r="3.5"/>
	</g>
	<g>
		<circle class="st4" cx="665.1" cy="231" r="3.5"/>
	</g>
	<g>
		<circle class="st4" cx="665.5" cy="183" r="3.5"/>
	</g>
	<g>
		<circle class="st4" cx="666.9" cy="522" r="3.5"/>
	</g>
	<g>
		<circle class="st4" cx="669.2" cy="346" r="3.5"/>
	</g>
	<g>
		<circle class="st4" cx="672.2" cy="326" r="3.5"/>
	</g>
	<g>
		<circle class="st4" cx="673.8" cy="326" r="3.5"/>
	</g>
	<g>
		<circle class="st4" cx="674.1" cy="237" r="3.5"/>
	</g>
	<g>
		<circle class="st4" cx="675.6" cy="411" r="3.5"/>
	</g>
	<g>
		<circle class="st4" cx="675.7" cy="210" r="3.5"/>
	</g>
	<g>
		<circle class="st4" cx="676.4" cy="311" r="3.5"/>
	</g>
	<g>
		<circle class="st4" cx="678.4" cy="237" r="3.5"/>
	</g>
	<g>
		<circle class="st4" cx="683" cy="472" r="3.5"/>
	</g>
	<g>
		<circle class="st4" cx="684.4" cy="534" r="3.5"/>
	</g>
	<g>
		<circle class="st4" cx="685.3" cy="485" r="3.5"/>
	</g>
	<g>
		<circle class="st4" cx="687.6" cy="491" r="3.5"/>
	</g>
	<g>
		<circle class="st4" cx="690.3" cy="473" r="3.5"/>
	</g>
	<g>
		<circle class="st4" cx="691.5" cy="317" r="3.5"/>
	</g>
	<g>
		<circle class="st4" cx="693.7" cy="407" r="3.5"/>
	</g>
	<g>
		<circle class="st4" cx="694.8" cy="191" r="3.5"/>
	</g>
	<g>
		<circle class="st4" cx="694.9" cy="251" r="3.5"/>
	</g>
	<g>
		<circle class="st4" cx="695.9" cy="289" r="3.5"/>
	</g>
	<g>
		<circle class="st4" cx="698.2" cy="562" r="3.5"/>
	</g>
	<g>
		<circle class="st4" cx="699" cy="330" r="3.5"/>
	</g>
	<g>
		<circle class="st4" cx="700.7" cy="556" r="3.5"/>
	</g>
	<g>
		<circle class="st4" cx="701.3" cy="150" r="3.5"/>
	</g>
	<g>
		<circle class="st4" cx="701.3" cy="192" r="3.5"/>
	</g>
	<g>
		<circle class="st4" cx="705.1" cy="330" r="3.5"/>
	</g>
	<g>
		<circle class="st4" cx="706.4" cy="534" r="3.5"/>
	</g>
	<g>
		<circle class="st4" cx="707" cy="416" r="3.5"/>
	</g>
	<g>
		<circle class="st4" cx="708.6" cy="437" r="3.5"/>
	</g>
	<g>
		<circle class="st4" cx="710.2" cy="283" r="3.5"/>
	</g>
	<g>
		<circle class="st4" cx="711.1" cy="484" r="3.5"/>
	</g>
	<g>
		<circle class="st4" cx="712.8" cy="482" r="3.5"/>
	</g>
	<g>
		<circle class="st4" cx="713.6" cy="409" r="3.5"/>
	</g>
	<g>
		<circle class="st4" cx="715" cy="508" r="3.5"/>
	</g>
	<g>
		<circle class="st4" cx="715.1" cy="432" r="3.5"/>
	</g>
	<g>
		<circle class="st4" cx="717.3" cy="455" r="3.5"/>
	</g>
	<g>
		<circle class="st4" cx="719.4" cy="290" r="3.5"/>
	</g>
	<g>
		<circle class="st4" cx="719.4" cy="554" r="3.5"/>
	</g>
	<g>
		<circle class="st4" cx="719.8" cy="544" r="3.5"/>
	</g>
	<g>
		<circle class="st4" cx="721" cy="182" r="3.5"/>
	</g>
	<g>
		<circle class="st4" cx="721.3" cy="198" r="3.5"/>
	</g>
	<g>
		<circle class="st4" cx="721.9" cy="389" r="3.5"/>
	</g>
	<g>
		<circle class="st4" cx="726.6" cy="402" r="3.5"/>
	</g>
	<g>
		<circle class="st4" cx="727.2" cy="483" r="3.5"/>
	</g>
	<g>
		<circle class="st4" cx="727.7" cy="560" r="3.5"/>
	</g>
	<g>
		<circle class="st4" cx="727.7" cy="370" r="3.5"/>
	</g>
	<g>
		<circle class="st4" cx="729.3" cy="230" r="3.5"/>
	</g>
	<g>
		<circle class="st4" cx="729.4" cy="561" r="3.5"/>
	</g>
	<g>
		<circle class="st4" cx="732.5" cy="423" r="3.5"/>
	</g>
	<g>
		<circle class="st4" cx="733.4" cy="443" r="3.5"/>
	</g>
	<g>
		<circle class="st5" cx="733.6" cy="570" r="3.5"/>
	</g>
	<g>
		<circle class="st4" cx="735.8" cy="404" r="3.5"/>
	</g>
	<g>
		<circle class="st4" cx="736.1" cy="165" r="3.5"/>
	</g>
	<g>
		<circle class="st4" cx="736.2" cy="530" r="3.5"/>
	</g>
	<g>
		<circle class="st4" cx="736.3" cy="256" r="3.5"/>
	</g>
	<g>
		<circle class="st4" cx="736.3" cy="301" r="3.5"/>
	</g>
	<g>
		<circle class="st4" cx="737" cy="303" r="3.5"/>
	</g>
	<g>
		<circle class="st4" cx="737.2" cy="194" r="3.5"/>
	</g>
	<g>
		<circle class="st4" cx="737.8" cy="194" r="3.5"/>
	</g>
	<g>
		<circle class="st4" cx="738.1" cy="283" r="3.5"/>
	</g>
	<g>
		<circle class="st4" cx="738.2" cy="173" r="3.5"/>
	</g>
	<g>
		<circle class="st4" cx="738.3" cy="259" r="3.5"/>
	</g>
	<g>
		<circle class="st4" cx="738.9" cy="366" r="3.5"/>
	</g>
	<g>
		<circle class="st4" cx="740.2" cy="402" r="3.5"/>
	</g>
	<g>
		<circle class="st4" cx="742.8" cy="534" r="3.5"/>
	</g>
	<g>
		<circle class="st4" cx="743" cy="234" r="3.5"/>
	</g>
	<g>
		<circle class="st4" cx="743.4" cy="186" r="3.5"/>
	</g>
	<g>
		<circle class="st4" cx="745.5" cy="244" r="3.5"/>
	</g>
	<g>
		<circle class="st4" cx="745.5" cy="352" r="3.5"/>
	</g>
	<g>
		<circle class="st4" cx="748.7" cy="334" r="3.5"/>
	</g>
	<g>
		<circle class="st4" cx="749.5" cy="493" r="3.5"/>
	</g>
	<g>
		<circle class="st4" cx="750.3" cy="442" r="3.5"/>
	</g>
	<g>
		<circle class="st4" cx="752.8" cy="448" r="3.5"/>
	</g>
	<g>
		<circle class="st4" cx="755.9" cy="193" r="3.5"/>
	</g>
	<g>
		<circle class="st4" cx="763.3" cy="312" r="3.5"/>
	</g>
	<g>
		<circle class="st4" cx="763.7" cy="398" r="3.5"/>
	</g>
	<g>
		<circle class="st4" cx="763.7" cy="442" r="3.5"/>
	</g>
	<g>
		<circle class="st4" cx="763.9" cy="455" r="3.5"/>
	</g>
	<g>
		<circle class="st4" cx="765.9" cy="336" r="3.5"/>
	</g>
	<g>
		<circle class="st4" cx="765.9" cy="155" r="3.5"/>
	</g>
	<g>
		<circle class="st5" cx="766.4" cy="572" r="3.5"/>
	</g>
	<g>
		<circle class="st4" cx="769.1" cy="346" r="3.5"/>
	</g>
	<g>
		<circle class="st4" cx="770.4" cy="444" r="3.5"/>
	</g>
	<g>
		<circle class="st4" cx="772.9" cy="486" r="3.5"/>
	</g>
	<g>
		<circle class="st4" cx="776.2" cy="380" r="3.5"/>
	</g>
	<g>
		<circle class="st4" cx="777" cy="550" r="3.5"/>
	</g>
	<g>
		<circle class="st4" cx="777.1" cy="530" r="3.5"/>
	</g>
	<g>
		<circle class="st4" cx="777.9" cy="275" r="3.5"/>
	</g>
	<g>
		<circle class="st4" cx="778.2" cy="166" r="3.5"/>
	</g>
	<g>
		<circle class="st4" cx="778.6" cy="358" r="3.5"/>
	</g>
	<g>
		<circle class="st4" cx="779.5" cy="519" r="3.5"/>
	</g>
	<g>
		<circle class="st4" cx="779.6" cy="172" r="3.5"/>
	</g>
	<g>
		<circle class="st4" cx="779.7" cy="279" r="3.5"/>
	</g>
	<g>
		<circle class="st4" cx="781.6" cy="519" r="3.5"/>
	</g>
	<g>
		<circle class="st4" cx="782.2" cy="513" r="3.5"/>
	</g>
	<g>
		<circle class="st4" cx="783.7" cy="550" r="3.5"/>
	</g>
	<g>
		<circle class="st4" cx="786.2" cy="171" r="3.5"/>
	</g>
	<g>
		<circle class="st4" cx="786.7" cy="235" r="3.5"/>
	</g>
	<g>
		<circle class="st4" cx="788.3" cy="215" r="3.5"/>
	</g>
	<g>
		<circle class="st4" cx="790" cy="167" r="3.5"/>
	</g>
	<g>
		<circle class="st4" cx="791.3" cy="258" r="3.5"/>
	</g>
	<g>
		<circle class="st4" cx="792.5" cy="441" r="3.5"/>
	</g>
	<g>
		<circle class="st4" cx="794.2" cy="181" r="3.5"/>
	</g>
	<g>
		<circle class="st4" cx="795" cy="152" r="3.5"/>
	</g>
	<g>
		<circle class="st4" cx="795.1" cy="480" r="3.5"/>
	</g>
	<g>
		<circle class="st4" cx="797" cy="252" r="3.5"/>
	</g>
	<g>
		<circle class="st4" cx="797.9" cy="419" r="3.5"/>
	</g>
	<g>
		<circle class="st4" cx="797.9" cy="372" r="3.5"/>
	</g>
	<g>
		<circle class="st4" cx="798.3" cy="417" r="3.5"/>
	</g>
	<g>
		<circle class="st4" cx="798.4" cy="513" r="3.5"/>
	</g>
	<g>
		<circle class="st4" cx="798.6" cy="459" r="3.5"/>
	</g>
	<g>
		<circle class="st4" cx="799.7" cy="370" r="3.5"/>
	</g>
	<g>
		<circle class="st4" cx="801.9" cy="148" r="3.5"/>
	</g>
	<g>
		<circle class="st4" cx="802" cy="343" r="3.5"/>
	</g>
	<g>
		<circle class="st4" cx="804.8" cy="526" r="3.5"/>
	</g>
	<g>
		<circle class="st4" cx="805" cy="231" r="3.5"/>
	</g>
	<g>
		<circle class="st4" cx="811.7" cy="511" r="3.5"/>
	</g>
	<g>
		<circle class="st4" cx="816.1" cy="375" r="3.5"/>
	</g>
	<g>
		<circle class="st4" cx="816.4" cy="373" r="3.5"/>
	</g>
	<g>
		<circle class="st4" cx="818.3" cy="331" r="3.5"/>
	</g>
	<g>
		<circle class="st4" cx="821" cy="542" r="3.5"/>
	</g>
	<g>
		<circle class="st4" cx="822.6" cy="231" r="3.5"/>
	</g>
	<g>
		<circle class="st4" cx="823.9" cy="304" r="3.5"/>
	</g>
	<g>
		<circle class="st4" cx="824" cy="554" r="3.5"/>
	</g>
	<g>
		<circle class="st4" cx="826.4" cy="399" r="3.5"/>
	</g>
	<g>
		<circle class="st4" cx="828.5" cy="251" r="3.5"/>
	</g>
	<g>
		<circle class="st4" cx="832.6" cy="365" r="3.5"/>
	</g>
	<g>
		<circle class="st4" cx="834.5" cy="213" r="3.5"/>
	</g>
	<g>
		<circle class="st4" cx="835" cy="400" r="3.5"/>
	</g>
	<g>
		<circle class="st4" cx="837.5" cy="321" r="3.5"/>
	</g>
	<g>
		<circle class="st5" cx="838.2" cy="567" r="3.5"/>
	</g>
	<g>
		<circle class="st4" cx="842.2" cy="525" r="3.5"/>
	</g>
	<g>
		<circle class="st4" cx="843.6" cy="539" r="3.5"/>
	</g>
	<g>
		<circle class="st4" cx="844.3" cy="398" r="3.5"/>
	</g>
	<g>
		<circle class="st4" cx="846.4" cy="478" r="3.5"/>
	</g>
	<g>
		<circle class="st4" cx="855.6" cy="167" r="3.5"/>
	</g>
	<g>
		<circle class="st4" cx="855.9" cy="512" r="3.5"/>
	</g>
	<g>
		<circle class="st4" cx="856.1" cy="323" r="3.5"/>
	</g>
	<g>
		<circle class="st4" cx="857.5" cy="443" r="3.5"/>
	</g>
	<g>
		<circle class="st4" cx="858.4" cy="262" r="3.5"/>
	</g>
	<g>
		<circle class="st4" cx="860.6" cy="506" r="3.5"/>
	</g>
	<g>
		<circle class="st4" cx="860.7" cy="250" r="3.5"/>
	</g>
	<g>
		<circle class="st4" cx="871" cy="153" r="3.5"/>
	</g>
	<g>
		<circle class="st4" cx="872.1" cy="278" r="3.5"/>
	</g>
	<g>
		<circle class="st4" cx="875.5" cy="239" r="3.5"/>
	</g>
	<g>
		<circle class="st4" cx="878.2" cy="387" r="3.5"/>
	</g>
	<g>
		<circle class="st4" cx="878.4" cy="359" r="3.5"/>
	</g>
	<g>
		<circle class="st4" cx="880.3" cy="399" r="3.5"/>
	</g>
	<g>
		<circle class="st4" cx="880.8" cy="511" r="3.5"/>
	</g>
	<g>
		<circle class="st4" cx="885.6" cy="310" r="3.5"/>
	</g>
	<g>
		<circle class="st4" cx="888.2" cy="216" r="3.5"/>
	</g>
	<g>
		<circle class="st4" cx="888.5" cy="286" r="3.5"/>
	</g>
	<g>
		<circle class="st4" cx="890.2" cy="228" r="3.5"/>
	</g>
	<g>
		<circle class="st4" cx="890.4" cy="158" r="3.5"/>
	</g>
	<g>
		<circle class="st4" cx="894.2" cy="176" r="3.5"/>
	</g>
	<g>
		<circle class="st4" cx="898.1" cy="198" r="3.5"/>
	</g>
	<g>
		<circle class="st4" cx="899.6" cy="330" r="3.5"/>
	</g>
	<g>
		<circle class="st4" cx="899.8" cy="223" r="3.5"/>
	</g>
	<g>
		<circle class="st4" cx="900.8" cy="428" r="3.5"/>
	</g>
	<g>
		<circle class="st4" cx="905.6" cy="408" r="3.5"/>
	</g>
	<g>
		<circle class="st5" cx="913.6" cy="569" r="3.5"/>
	</g>
	<g>
		<circle class="st4" cx="920.2" cy="405" r="3.5"/>
	</g>
	<g>
		<circle class="st4" cx="920.6" cy="404" r="3.5"/>
	</g>
	<g>
		<circle class="st5" cx="922.4" cy="565" r="3.5"/>
	</g>
	<g>
		<circle class="st4" cx="924.4" cy="190" r="3.5"/>
	</g>
	<g>
		<circle class="st4" cx="924.7" cy="270" r="3.5"/>
	</g>
	<g>
		<circle class="st4" cx="924.8" cy="179" r="3.5"/>
	</g>
	<g>
		<circle class="st4" cx="926.9" cy="206" r="3.5"/>
	</g>
	<g>
		<circle class="st4" cx="929.9" cy="210" r="3.5"/>
	</g>
	<g>
		<circle class="st4" cx="932" cy="427" r="3.5"/>
	</g>
	<g>
		<circle class="st4" cx="933.3" cy="421" r="3.5"/>
	</g>
	<g>
		<circle class="st4" cx="934.7" cy="211" r="3.5"/>
	</g>
	<g>
		<circle class="st4" cx="935.6" cy="290" r="3.5"/>
	</g>
	<g>
		<circle class="st4" cx="938.3" cy="291" r="3.5"/>
	</g>
	<g>
		<circle class="st4" cx="938.6" cy="474" r="3.5"/>
	</g>
	<g>
		<circle class="st4" cx="938.9" cy="498" r="3.5"/>
	</g>
	<g>
		<circle class="st4" cx="939.1" cy="475" r="3.5"/>
	</g>
	<g>
		<circle class="st4" cx="939.8" cy="319" r="3.5"/>
	</g>
	<g>
		<circle class="st4" cx="940.8" cy="160" r="3.5"/>
	</g>
	<g>
		<circle class="st4" cx="943.6" cy="512" r="3.5"/>
	</g>
	<g>
		<circle class="st4" cx="945.3" cy="339" r="3.5"/>
	</g>
	<g>
		<circle class="st4" cx="948.6" cy="398" r="3.5"/>
	</g>
	<g>
		<circle class="st4" cx="952" cy="182" r="3.5"/>
	</g>
	<g>
		<circle class="st4" cx="952.3" cy="436" r="3.5"/>
	</g>
	<g>
		<circle class="st4" cx="953.4" cy="341" r="3.5"/>
	</g>
	<g>
		<circle class="st4" cx="955.7" cy="211" r="3.5"/>
	</g>
	<g>
		<circle class="st4" cx="963.4" cy="333" r="3.5"/>
	</g>
	<g>
		<circle class="st4" cx="968.7" cy="459" r="3.5"/>
	</g>
	<g>
		<circle class="st4" cx="972.1" cy="347" r="3.5"/>
	</g>
	<g>
		<circle class="st4" cx="976" cy="227" r="3.5"/>
	</g>
	<g>
		<circle class="st4" cx="978.5" cy="214" r="3.5"/>
	</g>
	<g>
		<circle class="st4" cx="980.4" cy="333" r="3.5"/>
	</g>
	<g>
		<circle class="st4" cx="981.3" cy="159" r="3.5"/>
	</g>
	<g>
		<circle class="st4" cx="982" cy="307" r="3.5"/>
	</g>
	<g>
		<circle class="st4" cx="982" cy="315" r="3.5"/>
	</g>
	<g>
		<circle class="st4" cx="987.9" cy="485" r="3.5"/>
	</g>
	<g>
		<circle class="st4" cx="987.9" cy="559" r="3.5"/>
	</g>
	<g>
		<circle class="st4" cx="989.6" cy="309" r="3.5"/>
	</g>
	<g>
		<circle class="st4" cx="991" cy="370" r="3.5"/>
	</g>
	<g>
		<circle class="st4" cx="995.5" cy="307" r="3.5"/>
	</g>
	<g>
		<circle class="st4" cx="995.9" cy="330" r="3.5"/>
	</g>
	<g>
		<circle class="st4" cx="998.1" cy="165" r="3.5"/>
	</g>
	<g>
		<circle class="st4" cx="998.3" cy="332" r="3.5"/>
	</g>
	<g>
		<circle class="st4" cx="999.9" cy="522" r="3.5"/>
	</g>
	<g>
		<circle class="st4" cx="1003" cy="304" r="3.5"/>
	</g>
	<g>
		<circle class="st4" cx="1003.2" cy="376" r="3.5"/>
	</g>
	<g>
		<circle class="st4" cx="1003.6" cy="237" r="3.5"/>
	</g>
	<g>
		<circle class="st4" cx="1004" cy="547" r="3.5"/>
	</g>
	<g>
		<circle class="st4" cx="1005.7" cy="456" r="3.5"/>
	</g>
	<circle class="st6" cx="989.5" cy="283" r="3.5"/>
	<circle class="st6" cx="989.5" cy="202" r="3.5"/>
	<circle class="st6" cx="989.5" cy="152" r="3.5"/>
	<circle class="st6" cx="989.5" cy="522" r="3.5"/>
	<circle class="st6" cx="989.5" cy="501" r="3.5"/>
	<circle class="st6" cx="989.5" cy="176" r="3.5"/>
	<circle class="st6" cx="825.9" cy="410" r="3.5"/>
	<circle class="st6" cx="825.9" cy="374" r="3.5"/>
	<circle class="st6" cx="805.1" cy="254" r="3.5"/>
	<circle class="st6" cx="805.1" cy="168" r="3.5"/>
	<circle class="st6" cx="805.1" cy="323" r="3.5"/>
	<circle class="st6" cx="805.1" cy="321" r="3.5"/>
	<circle class="st6" cx="805.1" cy="438" r="3.5"/>
	<circle class="st6" cx="802.8" cy="449" r="3.5"/>
	<circle class="st6" cx="779.8" cy="159" r="3.5"/>
	<circle class="st6" cx="719.9" cy="395" r="3.5"/>
	<circle class="st6" cx="719.9" cy="196" r="3.5"/>
	<circle class="st6" cx="678.4" cy="384" r="3.5"/>
	<circle class="st6" cx="586.3" cy="556" r="3.5"/>
	<circle class="st6" cx="537.9" cy="489" r="3.5"/>
	<circle class="st6" cx="503.3" cy="178" r="3.5"/>
	<circle class="st6" cx="397.4" cy="357" r="3.5"/>
	<circle class="st7" cx="-37691.8" cy="177" r="3.5"/>
	<circle class="st7" cx="-37691.8" cy="408" r="3.5"/>
	<text transform="matrix(1 0 0 1 200.4258 76.9063)" class="st8 st9">Chiraq vs. Iraq</text>
	<g>
		<circle class="st10" cx="862.9" cy="66.5" r="5"/>
	</g>
	<circle class="st11" cx="862.9" cy="98.2" r="5"/>
	<text transform="matrix(1 0 0 1 200.2734 102.8985)" class="st2 st12">Every dot is a homicide in Chicago or an U.S. armed forces death in the Middle East.</text>
	<text transform="matrix(1 0 0 1 875 71.2457)"><tspan x="0" y="0" class="st13 st12">481</tspan><tspan x="24.6" y="0" class="st2 st12"> Chicago Homicides</tspan></text>
	<text transform="matrix(1 0 0 1 877.667 102.8988)"><tspan x="0" y="0" class="st13 st12">24 </tspan><tspan x="19.7" y="0" class="st2 st12">Soldier Casualties</tspan></text>
</g>
<text transform="matrix(1 0 0 1 1198.9722 121.2456)"><tspan x="0" y="0" class="st2" style="font-size:10px;">Author: @ryan_p_larson</tspan><tspan x="0" y="12" class="st2" style="font-size:10px;">Sources: Chicago Open Data, icausalties.org</tspan></text>
</svg>
